<svg xmlns="http://www.w3.org/2000/svg" viewBox="0 0 100 100">
  <rect width="100" height="100" rx="14" fill="#787E59"/>
  <g fill="none" stroke="#F1EEE8" stroke-width="2.4">
    <g><ellipse cx="50" cy="20.4" rx="3.24" ry="5.58"/><ellipse cx="50" cy="20.4" rx="3.24" ry="5.58" transform="rotate(90 50 26)"/><ellipse cx="50" cy="20.4" rx="3.24" ry="5.58" transform="rotate(180 50 26)"/><ellipse cx="50" cy="20.4" rx="3.24" ry="5.58" transform="rotate(270 50 26)"/><circle cx="50" cy="26" r="1.62" fill="#F1EEE8" stroke="none"/></g>
    <g><ellipse cx="30" cy="34.4" rx="3.24" ry="5.58"/><ellipse cx="30" cy="34.4" rx="3.24" ry="5.58" transform="rotate(90 30 40)"/><ellipse cx="30" cy="34.4" rx="3.24" ry="5.58" transform="rotate(180 30 40)"/><ellipse cx="30" cy="34.4" rx="3.24" ry="5.58" transform="rotate(270 30 40)"/><circle cx="30" cy="40" r="1.62" fill="#F1EEE8" stroke="none"/></g>
    <g><ellipse cx="70" cy="34.4" rx="3.24" ry="5.58"/><ellipse cx="70" cy="34.4" rx="3.24" ry="5.58" transform="rotate(90 70 40)"/><ellipse cx="70" cy="34.4" rx="3.24" ry="5.58" transform="rotate(180 70 40)"/><ellipse cx="70" cy="34.4" rx="3.24" ry="5.58" transform="rotate(270 70 40)"/><circle cx="70" cy="40" r="1.62" fill="#F1EEE8" stroke="none"/></g>
    <g><ellipse cx="40" cy="54.4" rx="3.24" ry="5.58"/><ellipse cx="40" cy="54.4" rx="3.24" ry="5.58" transform="rotate(90 40 60)"/><ellipse cx="40" cy="54.4" rx="3.24" ry="5.58" transform="rotate(180 40 60)"/><ellipse cx="40" cy="54.4" rx="3.24" ry="5.58" transform="rotate(270 40 60)"/><circle cx="40" cy="60" r="1.62" fill="#F1EEE8" stroke="none"/></g>
    <g><ellipse cx="60" cy="54.4" rx="3.24" ry="5.58"/><ellipse cx="60" cy="54.4" rx="3.24" ry="5.58" transform="rotate(90 60 60)"/><ellipse cx="60" cy="54.4" rx="3.24" ry="5.58" transform="rotate(180 60 60)"/><ellipse cx="60" cy="54.4" rx="3.24" ry="5.58" transform="rotate(270 60 60)"/><circle cx="60" cy="60" r="1.62" fill="#F1EEE8" stroke="none"/></g>
    <g><ellipse cx="50" cy="73" rx="2.88" ry="4.96"/><ellipse cx="50" cy="73" rx="2.88" ry="4.96" transform="rotate(90 50 78)"/><ellipse cx="50" cy="73" rx="2.88" ry="4.96" transform="rotate(180 50 78)"/><ellipse cx="50" cy="73" rx="2.88" ry="4.96" transform="rotate(270 50 78)"/><circle cx="50" cy="78" r="1.44" fill="#F1EEE8" stroke="none"/></g>
  </g>
</svg>
